<?xml version="1.0" encoding="UTF-8" standalone="no"?>
<!-- Created with Inkscape (http://www.inkscape.org/) -->

<svg
   xmlns:dc="http://purl.org/dc/elements/1.1/"
   xmlns:cc="http://creativecommons.org/ns#"
   xmlns:rdf="http://www.w3.org/1999/02/22-rdf-syntax-ns#"
   xmlns:svg="http://www.w3.org/2000/svg"
   xmlns="http://www.w3.org/2000/svg"
   xmlns:sodipodi="http://sodipodi.sourceforge.net/DTD/sodipodi-0.dtd"
   xmlns:inkscape="http://www.inkscape.org/namespaces/inkscape"
   width="88.635841mm"
   height="103.1671mm"
   viewBox="0 0 88.635844 103.1671"
   version="1.1"
   id="svg8"
   inkscape:version="0.92.2 (5c3e80d, 2017-08-06)"
   sodipodi:docname="treble_logo_icon.svg">
  <defs
     id="defs2">
    <clipPath
       clipPathUnits="userSpaceOnUse"
       id="clipPath901">
      <rect
         style="opacity:1;fill:none;fill-opacity:1;stroke:#000000;stroke-width:0.50764883;stroke-miterlimit:4;stroke-dasharray:none;stroke-opacity:1"
         id="rect903"
         width="104.85434"
         height="104.85434"
         x="49.070042"
         y="139.37483" />
    </clipPath>
  </defs>
  <sodipodi:namedview
     id="base"
     pagecolor="#ffffff"
     bordercolor="#666666"
     borderopacity="1.0"
     inkscape:pageopacity="0"
     inkscape:pageshadow="2"
     inkscape:zoom="1.4142136"
     inkscape:cx="-15.179329"
     inkscape:cy="151.62679"
     inkscape:document-units="mm"
     inkscape:current-layer="layer1"
     showgrid="false"
     showguides="false"
     inkscape:guide-bbox="true"
     inkscape:window-width="1920"
     inkscape:window-height="1048"
     inkscape:window-x="0"
     inkscape:window-y="0"
     inkscape:window-maximized="1"
     inkscape:pagecheckerboard="true"
     borderlayer="false"
     showborder="true"
     inkscape:showpageshadow="true">
    <sodipodi:guide
       position="24.781293,103.06986"
       orientation="0,1"
       id="guide3769"
       inkscape:locked="false" />
    <sodipodi:guide
       position="109.92562,61.929147"
       orientation="1,0"
       id="guide3771"
       inkscape:locked="false" />
    <sodipodi:guide
       position="129.91164,76.777117"
       orientation="1,0"
       id="guide3773"
       inkscape:locked="false" />
    <sodipodi:guide
       position="121.53286,98.125368"
       orientation="0,1"
       id="guide3775"
       inkscape:locked="false" />
    <sodipodi:guide
       position="109.92562,0.037450587"
       orientation="0,1"
       id="guide3830"
       inkscape:locked="false" />
    <sodipodi:guide
       position="69.148032,5.1155737"
       orientation="0,1"
       id="guide3832"
       inkscape:locked="false" />
    <sodipodi:guide
       position="55.305462,5.1155697"
       orientation="1,0"
       id="guide3834"
       inkscape:locked="false" />
    <sodipodi:guide
       position="67.653002,0.75573761"
       orientation="1,0"
       id="guide3836"
       inkscape:locked="false" />
    <sodipodi:guide
       position="50.891902,59.031458"
       orientation="1,0"
       id="guide3838"
       inkscape:locked="false" />
    <sodipodi:guide
       position="61.238992,57.141578"
       orientation="1,0"
       id="guide3840"
       inkscape:locked="false" />
    <sodipodi:guide
       position="67.728172,5.1155657"
       orientation="1,0"
       id="guide838"
       inkscape:locked="false" />
  </sodipodi:namedview>
  <metadata
     id="metadata5">
    <rdf:RDF>
      <cc:Work
         rdf:about="">
        <dc:format>image/svg+xml</dc:format>
        <dc:type
           rdf:resource="http://purl.org/dc/dcmitype/StillImage" />
        <dc:title />
      </cc:Work>
    </rdf:RDF>
  </metadata>
  <g
     inkscape:label="Layer 1"
     inkscape:groupmode="layer"
     id="layer1"
     transform="translate(-65.288538,-140.41645)"
     style="display:inline">
    <g
       id="g899"
       clip-path="url(#clipPath901)"
       inkscape:export-xdpi="96"
       inkscape:export-ydpi="96">
      <path
         sodipodi:nodetypes="cscccsccsssscsscsscsscscsssccccsssscccsscssscssssccssscscsssscccscccssscccccccssccccccccsscssssssccscccscccsccccccsccssccscccccsccccsccssscccsssscccsccsscssccccsscccccccsscssccccccsscc"
         inkscape:connector-curvature="0"
         id="path3710"
         d="m 82.751037,243.35653 c -2.515659,-0.768 -5.18685,-3.11229 -6.465328,-5.67411 -0.889642,-1.78267 -1.032593,-4.10496 -0.352515,-5.72675 0.518747,-1.23707 2.149759,-2.57074 2.696165,-2.99216 0.543115,-0.40231 2.139356,-0.95207 3.426386,-0.96416 2.049801,0.007 3.474996,0.63888 4.717443,2.0904 3.108166,3.63119 0.682678,9.24279 -4.2288,9.78373 l -1.513142,0.16665 1.322916,0.97266 c 2.39415,1.76027 4.470554,1.88302 7.350014,0.43449 3.249476,-1.63467 5.217695,-4.43995 5.217695,-7.43672 0,-1.24814 -1.241829,-9.41264 -2.011828,-13.22692 l -0.146883,-0.7276 H 79.025848 c -13.560921,0 -13.73731,-0.007 -13.73731,-0.52917 0,-0.51777 0.186619,-0.52983 8.665104,-0.55986 4.765807,-0.0169 8.426979,-0.0865 8.135937,-0.15471 -5.900191,-1.3828 -11.226495,-5.81777 -14.058362,-11.70577 -0.967481,-2.01158 -1.069466,-2.12691 -1.882784,-2.12926 -0.586859,-0.002 -0.859895,-0.1285 -0.859895,-0.39936 0,-0.26046 0.260647,-0.39687 0.758329,-0.39687 h 0.75833 l -0.389352,-1.65365 c -0.709915,-3.01513 0.02954,-7.90361 1.678941,-11.09936 0.59354,-1.15 0.47846,-1.26991 -1.218748,-1.26991 -1.234723,0 -1.5875,-0.0882 -1.5875,-0.39688 0,-0.31458 0.380047,-0.39687 1.832926,-0.39687 h 1.832927 l 0.980001,-1.65365 c 0.987985,-1.66711 2.808888,-4.40103 3.551496,-5.33225 1.159657,-1.45418 5.042506,-5.9143 5.528493,-6.35042 0.308911,-0.27722 0.561656,-0.60464 0.561656,-0.72761 0,-0.12296 -3.214687,-0.22357 -7.14375,-0.22357 -6.17361,0 -7.143749,-0.0539 -7.143749,-0.39688 0,-0.34361 1.025155,-0.39687 7.638902,-0.39687 h 7.638903 l 1.355223,-1.31311 1.355223,-1.31312 -0.65972,-2.72178 c -0.362845,-1.49698 -0.860239,-4.06124 -1.105318,-5.69835 l -0.445599,-2.97656 h -7.888807 c -6.835884,0 -7.888807,-0.053 -7.888807,-0.39687 0,-0.34377 1.039137,-0.39688 7.764734,-0.39688 h 7.764733 l 0.166591,-2.97656 c 0.206973,-3.6981 1.105803,-7.16179 2.694883,-10.3849 2.131745,-4.32378 3.556013,-5.68854 5.936591,-5.68854 1.46659,0 2.138159,0.70716 3.589116,3.77935 1.762887,3.73265 3.022346,9.38387 3.034755,13.617 l 0.0048,1.65365 h 67.733329 c 60.03102,0 67.73334,0.0451 67.73334,0.39688 0,0.35174 -7.71702,0.39687 -67.86564,0.39687 H 95.980205 v 0.67261 c 0,2.46188 -1.835259,7.99994 -3.738015,11.2798 -0.563468,0.97128 -1.024486,1.83448 -1.024486,1.91823 0,0.0838 31.611086,0.15228 70.246866,0.15228 62.26529,0 70.24689,0.0451 70.24689,0.39687 0,0.35179 -8.02442,0.39688 -70.63227,0.39688 H 90.44693 l -2.20269,2.18281 -2.202691,2.18281 0.858152,4.49792 c 0.471985,2.47385 0.862714,4.50891 0.868286,4.52235 0.0056,0.0134 1.468649,0.0217 3.251279,0.0183 2.412062,-0.005 3.537298,0.10765 4.398892,0.43858 1.073537,0.41235 6.072142,0.44469 68.725512,0.44469 59.88387,0 67.56779,0.0451 67.56779,0.39687 0,0.35173 -7.56944,0.39688 -66.53743,0.39688 H 98.636613 l 1.926217,1.91823 c 2.85672,2.84484 4.41023,6.16131 4.83358,10.31875 l 0.18187,1.78594 h 27.60737 27.60739 22.8304 24.04401 c 21.15825,0 24.04401,0.0475 24.04401,0.39547 0,0.34751 -2.91166,0.40367 -24.00646,0.46302 l -24.00646,0.0676 -23.00518,-0.13229 h -27.58904 -27.58904 l -0.12217,0.59531 c -0.56543,2.7551 -0.84715,3.70241 -1.49288,5.01981 -0.40817,0.83275 -0.98794,1.77794 -1.28837,2.10041 -0.30043,0.32248 -0.54624,0.67269 -0.54624,0.77824 0,0.34278 -3.270246,2.79575 -4.663925,3.49835 -0.746152,0.37616 -1.907011,0.82251 -2.579688,0.9919 -0.715412,0.18014 -1.223052,0.45965 -1.223052,0.67343 0,0.30996 10.487105,0.36546 69.056245,0.36546 68.87987,0 69.05626,10e-4 69.05626,0.52917 0,0.52781 -0.17639,0.52917 -68.92397,0.52917 -37.90818,-1e-5 -68.923952,0.0761 -68.923952,0.16904 0,0.093 0.485976,2.98025 1.079947,6.41615 1.252046,7.24263 1.266936,8.78346 0.104368,10.80062 -0.679026,0.96619 -2.000964,2.99741 -2.951132,3.60455 -0.450135,0.36708 -1.614601,1.1718 -3.728424,1.91786 -1.80663,0.63764 -4.253757,0.80853 -5.61726,0.39226 z m 7.889478,-26.08887 c 0.967169,-0.28722 1.368368,-0.54047 1.362206,-0.8599 -0.0048,-0.24902 -0.518103,-2.89355 -1.140668,-5.87672 l -1.131935,-5.42396 -5.378353,-0.0717 -5.378355,-0.0718 0.170091,1.24095 c 0.350913,2.56019 2.688862,5.34823 5.856495,6.98395 1.018645,0.52602 2.149739,1.04426 2.513541,1.15165 0.363802,0.1074 0.524746,0.25266 0.357651,0.32282 -0.449948,0.18892 -3.291453,-1.03312 -4.927907,-2.11934 -1.985011,-1.31757 -4.31311,-3.83525 -5.090424,-5.50493 -0.359095,-0.77135 -0.654063,-1.55127 -0.655485,-1.73318 -0.0019,-0.24461 -0.76905,-0.33072 -2.946074,-0.33072 h -2.94349 l 0.168665,0.84332 c 0.470246,2.35123 2.72537,5.79056 5.237967,7.98852 1.587472,1.38868 3.93437,2.70109 6.029116,3.37154 1.891467,0.60539 6.002836,0.65198 7.896959,0.0895 z m 5.301688,-2.04164 c 1.626631,-0.80169 4.076917,-3.23891 4.756867,-4.7315 0.67144,-1.47391 1.08678,-3.19044 1.09549,-4.52755 l 0.006,-0.99218 h -5.45217 -5.452643 l 0.14173,0.59531 c 0.07795,0.32742 0.586515,2.83873 1.130142,5.5807 l 0.988412,4.98538 0.790525,-0.1581 c 0.434789,-0.087 1.332828,-0.42539 1.995641,-0.75206 z M 76.72842,202.79197 c -0.341666,-4.1989 1.150916,-8.06376 4.206815,-10.89306 l 1.88022,-1.74079 h -3.298494 c -3.806532,0 -3.403818,-0.23465 -5.449055,3.175 -1.699491,2.83325 -2.636121,5.63781 -2.861331,8.56771 l -0.175271,2.28021 h 2.905072 2.905072 z m 11.874888,-3.37343 c -1.061019,-5.35858 -0.88292,-5.12945 -3.287748,-4.22969 -3.041816,1.13809 -5.72743,4.51851 -6.173124,7.7702 l -0.167492,1.22199 h 5.285679 5.285679 z m 12.842422,3.7768 c -0.088,-0.54213 -0.51457,-1.70299 -0.94799,-2.57969 -1.852176,-3.7465 -5.806305,-6.2242 -9.933147,-6.2242 -0.950476,0 -1.728139,0.0989 -1.728139,0.21979 0,0.12088 0.416719,2.28416 0.926041,4.8073 0.509323,2.52313 0.926042,4.62688 0.926042,4.675 0,0.0481 2.456361,0.0875 5.458577,0.0875 h 5.458576 z M 85.885217,189.07437 c 0.663551,-0.23132 0.804783,-0.40532 0.697918,-0.8599 -0.129711,-0.55175 -1.450848,-7.58219 -1.450848,-7.72069 0,-0.0377 -0.08054,-0.33321 -0.410617,-0.2262 -0.115043,0.0373 -0.153221,0.0329 -0.23568,0.12548 -1.488249,1.70499 -1.695241,2.25788 -3.527688,4.25434 -3.661548,3.91066 -4.023471,4.31688 -4.025803,4.51853 -0.0036,0.31389 8.025202,0.23177 8.952718,-0.0916 z m 1.308307,-20.81052 c 1.277175,-1.27331 2.747544,-2.96995 3.267487,-3.77032 0.987653,-1.52032 2.344194,-3.89895 2.344194,-4.11043 0,-0.0676 -2.161303,-0.1229 -4.802895,-0.1229 h -4.802892 l 0.160344,3.10885 c 0.222201,4.3082 0.683046,7.2099 1.14507,7.2099 0.201603,0 1.411514,-1.0418 2.688692,-2.3151 z m 6.383507,-10.13334 c 0.392107,-1.82833 0.358945,-4.76325 -0.07981,-7.06392 -0.52406,-2.74794 -1.089089,-3.48124 -2.998094,-3.891 -0.761482,-0.16345 -0.992238,-0.0504 -2.196396,1.07594 -0.873223,0.8168 -1.660853,1.91473 -2.243871,3.12789 -0.85975,1.789 -2.778651,7.16854 -2.778651,7.78981 0,0.20943 1.478377,0.29722 5.00516,0.29722 h 5.005157 z"
         style="fill:#000000;stroke-width:0.26458338" />
    </g>
  </g>
  <g
     inkscape:groupmode="layer"
     id="layer2"
     inkscape:label="Layer 2"
     style="display:none"
     sodipodi:insensitive="true"
     transform="translate(-65.288538,-53.41645)">
    <path
       inkscape:connector-curvature="0"
       id="path3742"
       style="font-style:normal;font-variant:normal;font-weight:normal;font-stretch:normal;font-size:medium;line-height:1.25;font-family:Laksaman;-inkscape-font-specification:Laksaman;letter-spacing:0px;word-spacing:0px;fill:#000000;fill-opacity:1;stroke:none;stroke-width:0.74873406"
       d="m 121.40097,111.40577 q -1.85686,0 -2.90509,-1.37767 -1.01828,-1.40762 -1.01828,-3.53403 v -9.463995 h -3.05483 v -1.347722 h 3.05483 V 91.13005 l 1.79697,-0.808633 v 5.360936 h 4.88174 v 1.347722 h -4.88174 v 9.463995 q 0,3.41423 2.27615,3.41423 1.40762,0 2.0665,-0.26954 l 0.1797,1.34772 q -0.92843,0.41929 -2.39595,0.41929 z" />
    <path
       inkscape:connector-curvature="0"
       id="path3744"
       style="font-style:normal;font-variant:normal;font-weight:normal;font-stretch:normal;font-size:medium;line-height:1.25;font-family:Laksaman;-inkscape-font-specification:Laksaman;letter-spacing:0px;word-spacing:0px;fill:#000000;fill-opacity:1;stroke:none;stroke-width:0.74873406"
       d="m 139.41549,103.78947 c -0.1198,-0.0399 -0.2995,-0.0599 -0.53909,-0.0599 -1.31777,0 -2.43588,0.53909 -3.35433,1.61727 -0.89848,1.05822 -1.34772,2.48581 -1.34772,4.28277 v 25.33688 l -1.79696,0.003 v -27.406 c 0,-2.2562 -0.14975,-3.92339 -0.44924,-5.00157 h 1.52741 c 0.31946,0.63892 0.47919,1.6572 0.47919,3.05485 0.95838,-2.2562 2.49578,-3.3843 4.6122,-3.3843 0.27953,0 0.56905,0.0299 0.86854,0.0898 z"
       sodipodi:nodetypes="cscsccscccscc" />
    <path
       inkscape:connector-curvature="0"
       id="path3746"
       style="font-style:normal;font-variant:normal;font-weight:normal;font-stretch:normal;font-size:medium;line-height:1.25;font-family:Laksaman;-inkscape-font-specification:Laksaman;letter-spacing:0px;word-spacing:0px;fill:#000000;fill-opacity:1;stroke:none;stroke-width:0.74873406"
       d="m 148.98428,110.3484 q 0.0899,2.90509 1.73706,4.6721 1.67716,1.76701 4.46245,1.76701 2.6056,0 5.36094,-1.07818 l 0.14975,1.46752 q -2.6655,1.10813 -5.69038,1.10813 -3.44418,0 -5.63048,-2.12641 -2.1863,-2.15635 -2.1863,-5.54063 0,-3.62387 2.09645,-5.98989 2.12641,-2.39596 5.54063,-2.39596 6.43912,0 6.58886,8.11631 z m 10.63202,-1.49747 q -0.0599,-2.33605 -1.43757,-3.71373 -1.34772,-1.40763 -3.56397,-1.40763 -2.21626,0 -3.71372,1.46752 -1.49747,1.43758 -1.82691,3.65384 z" />
    <path
       inkscape:connector-curvature="0"
       id="path3748"
       style="font-style:normal;font-variant:normal;font-weight:normal;font-stretch:normal;font-size:medium;line-height:1.25;font-family:Laksaman;-inkscape-font-specification:Laksaman;letter-spacing:0px;word-spacing:0px;fill:#000000;fill-opacity:1;stroke:none;stroke-width:0.74873406"
       d="m 176.88204,87.415405 c 2.11642,0 3.79358,0.738751 5.03149,2.216253 1.23791,1.457535 1.85686,3.314389 1.85686,5.570562 0,2.415906 -0.63892,4.402539 -1.91676,5.9599 -1.27784,1.5374 -3.02489,2.3061 -5.24114,2.3061 -2.37598,0 -4.27277,-1.03825 -5.69038,-3.11474 0,1.01828 -0.0299,1.91676 -0.0898,2.69545 h -1.64722 c 0.0799,-0.69882 0.1198,-1.94671 0.1198,-3.743664 V 66.410255 l 22.23734,-4e-6 v 3.100724 h -20.44038 v 21.138961 c 1.31777,-2.156354 3.24452,-3.234531 5.78023,-3.234531 z m -5.78023,9.493923 c 0,1.437559 0.50914,2.645509 1.52742,3.623852 1.01827,0.95838 2.26616,1.43757 3.74367,1.43757 3.73369,0 5.60053,-2.236211 5.60053,-6.708633 0,-1.896781 -0.46921,-3.424192 -1.40762,-4.582231 -0.93841,-1.178009 -2.27615,-1.767013 -4.01322,-1.767013 -1.51743,0 -2.80525,0.529106 -3.86346,1.587317 -1.05821,1.05821 -1.58732,2.346028 -1.58732,3.863453 z"
       sodipodi:nodetypes="ccscscccscccccccscsscscss" />
    <path
       inkscape:connector-curvature="0"
       id="path3750"
       style="font-style:normal;font-variant:normal;font-weight:normal;font-stretch:normal;font-size:medium;line-height:1.25;font-family:Laksaman;-inkscape-font-specification:Laksaman;letter-spacing:0px;word-spacing:0px;fill:#000000;fill-opacity:1;stroke:none;stroke-width:0.74873406"
       d="m 197.41229,116.78751 -0.17969,1.49747 c -3.79359,-0.1797 -5.69038,-2.88513 -5.69038,-8.11628 V 66.410255 h 1.79696 v 43.129485 c 0,1.13808 0.0499,2.09646 0.14975,2.87514 0.0998,0.77869 0.27952,1.52742 0.53909,2.24621 0.27953,0.71878 0.69882,1.25787 1.25787,1.61726 0.55905,0.33943 1.26785,0.50914 2.1264,0.50914 z"
       sodipodi:nodetypes="ccsccsccccc" />
    <path
       inkscape:connector-curvature="0"
       id="path3752"
       style="font-style:normal;font-variant:normal;font-weight:normal;font-stretch:normal;font-size:medium;line-height:1.25;font-family:Laksaman;-inkscape-font-specification:Laksaman;letter-spacing:0px;word-spacing:0px;fill:#000000;fill-opacity:1;stroke:none;stroke-width:0.74873406"
       d="m 206.98108,103.46919 q 0.0899,2.90509 1.73706,4.6721 1.67717,1.76701 4.46246,1.76701 2.60559,0 5.36094,-1.07818 l 0.14974,1.46752 q -2.66549,1.10813 -5.69038,1.10813 -3.44417,0 -5.63048,-2.12641 -2.1863,-2.15635 -2.1863,-5.54063 0,-3.62387 2.09645,-5.989871 2.12641,-2.395949 5.54064,-2.395949 6.43911,0 6.58886,8.11628 z m 10.63202,-1.49747 q -0.0599,-2.336051 -1.43756,-3.713722 -1.34773,-1.40762 -3.56398,-1.40762 -2.21625,0 -3.71372,1.467519 -1.49747,1.437569 -1.82691,3.653823 z" />
  </g>
  <g
     inkscape:groupmode="layer"
     id="layer3"
     inkscape:label="Layer 3"
     style="display:none"
     transform="translate(-65.288538,-53.41645)" />
  <g
     inkscape:groupmode="layer"
     id="layer4"
     inkscape:label="Layer 4"
     style="display:none"
     transform="translate(-65.288538,-53.41645)" />
</svg>
